<?xml version="1.0" encoding="UTF-8" standalone="no"?>
<svg
   xmlns:dc="http://purl.org/dc/elements/1.1/"
   xmlns:cc="http://creativecommons.org/ns#"
   xmlns:rdf="http://www.w3.org/1999/02/22-rdf-syntax-ns#"
   xmlns:svg="http://www.w3.org/2000/svg"
   xmlns="http://www.w3.org/2000/svg"
   version="1.1"
   id="svg4136"
   viewBox="0 0 800.00001 400.00001"
   height="400"
   width="800">
  <defs
     id="defs4138" />
  <metadata
     id="metadata4141">
    <rdf:RDF>
      <cc:Work
         rdf:about="">
        <dc:format>image/svg+xml</dc:format>
        <dc:type
           rdf:resource="http://purl.org/dc/dcmitype/StillImage" />
        <dc:title></dc:title>
      </cc:Work>
    </rdf:RDF>
  </metadata>
  <g
     transform="translate(0,-652.36216)"
     id="layer1">
    <path
       id="path4684"
       d="m 0,951.86216 800,0"
       style="fill:#666666;fill-rule:evenodd;stroke:#999999;stroke-width:0.96932828px;stroke-linecap:butt;stroke-linejoin:miter;stroke-opacity:1" />
    <path
       style="fill:#666666;fill-rule:evenodd;stroke:#999999;stroke-width:0.96932828px;stroke-linecap:butt;stroke-linejoin:miter;stroke-opacity:1"
       d="m 0,851.8775 800,0"
       id="path4695" />
    <path
       id="path4697"
       d="m 0,751.8775 800,0"
       style="fill:#666666;fill-rule:evenodd;stroke:#999999;stroke-width:0.96932828px;stroke-linecap:butt;stroke-linejoin:miter;stroke-opacity:1" />
    <g
       id="flowRoot4699"
       style="font-style:normal;font-weight:normal;font-size:40px;line-height:125%;font-family:sans-serif;letter-spacing:0px;word-spacing:0px;fill:#999999;fill-opacity:1;stroke:none;stroke-width:1px;stroke-linecap:butt;stroke-linejoin:miter;stroke-opacity:1"
       transform="translate(144,532.36216)">
      <g
         style="fill:#999999"
         transform="matrix(0.62418243,0,0,0.62418243,174.00985,101.05399)"
         id="g4746">
        <path
           d="m 715.81117,40.212745 0,15.220151 -1.71715,0 0,-13.937867 -3.89145,4.315164 -1.08158,-1.025827 4.21481,-4.571621 2.47537,0 z"
           style="font-style:normal;font-variant:normal;font-weight:normal;font-stretch:normal;font-size:40px;line-height:125%;font-family:Eurostile;-inkscape-font-specification:'Eurostile, Normal';text-align:start;writing-mode:lr-tb;text-anchor:start;fill:#999999"
           id="path4716" />
        <path
           d="m 727.83119,40.056641 q 4.22596,0 5.09568,1.13733 0.86972,1.126179 0.86972,6.623275 0,5.240638 -0.82512,6.355667 -1.05928,1.416088 -5.14028,1.416088 -4.08101,0 -5.14029,-1.416088 -0.82512,-1.115029 -0.82512,-6.902032 0,-5.006482 0.91432,-6.110361 0.91433,-1.103879 5.05109,-1.103879 z m 0,1.449538 q -3.20014,0 -3.7688,0.825122 -0.55752,0.825121 -0.55752,5.485945 0,4.671973 0.55752,5.497095 0.56866,0.825121 3.7688,0.825121 3.20013,0 3.75764,-0.825121 0.56867,-0.825122 0.56867,-5.497095 0,-4.660824 -0.56867,-5.485945 -0.55751,-0.825122 -3.75764,-0.825122 z"
           style="font-style:normal;font-variant:normal;font-weight:normal;font-stretch:normal;font-size:40px;line-height:125%;font-family:Eurostile;-inkscape-font-specification:'Eurostile, Normal';text-align:start;writing-mode:lr-tb;text-anchor:start;fill:#999999"
           id="path4718" />
        <path
           d="m 741.83596,40.056641 q 4.22595,0 5.09568,1.13733 0.86972,1.126179 0.86972,6.623275 0,5.240638 -0.82512,6.355667 -1.05928,1.416088 -5.14028,1.416088 -4.08101,0 -5.14029,-1.416088 -0.82512,-1.115029 -0.82512,-6.902032 0,-5.006482 0.91432,-6.110361 0.91433,-1.103879 5.05109,-1.103879 z m 0,1.449538 q -3.20014,0 -3.7688,0.825122 -0.55752,0.825121 -0.55752,5.485945 0,4.671973 0.55752,5.497095 0.56866,0.825121 3.7688,0.825121 3.20013,0 3.75764,-0.825121 0.56867,-0.825122 0.56867,-5.497095 0,-4.660824 -0.56867,-5.485945 -0.55751,-0.825122 -3.75764,-0.825122 z"
           style="font-style:normal;font-variant:normal;font-weight:normal;font-stretch:normal;font-size:40px;line-height:125%;font-family:Eurostile;-inkscape-font-specification:'Eurostile, Normal';text-align:start;writing-mode:lr-tb;text-anchor:start;fill:#999999"
           id="path4720" />
        <path
           d="m 752.55139,40.156994 q 2.28581,0 2.79872,0.602115 0.51291,0.590966 0.51291,3.211285 0,2.620319 -0.51291,3.267036 -0.51291,0.646717 -2.60917,0.646717 -2.35271,0 -2.94368,-0.657867 -0.57981,-0.657867 -0.57981,-3.300487 0,-2.419614 0.59096,-3.088632 0.60212,-0.680167 2.74298,-0.680167 z m -0.0223,0.802821 q -1.65025,0 -2.00706,0.434861 -0.35681,0.434861 -0.35681,2.430764 0,2.430765 0.36796,2.843325 0.37911,0.412561 2.60917,0.412561 1.7729,0 1.7729,-1.772897 l 0,-1.315734 0,-1.237683 q 0,-1.215382 -0.39026,-1.50529 -0.37911,-0.289907 -1.9959,-0.289907 z m 10.97188,-0.74707 -10.33632,15.220151 -1.03698,0 10.26942,-15.220151 1.10388,0 z m -0.45716,7.548749 q 2.28581,0 2.79873,0.602116 0.51291,0.590965 0.51291,3.211285 0,2.631469 -0.51291,3.278186 -0.51292,0.635567 -2.60917,0.635567 -2.35272,0 -2.94368,-0.657867 -0.57982,-0.657868 -0.57982,-3.300487 0,-2.419614 0.59097,-3.088632 0.60212,-0.680168 2.74297,-0.680168 z m -0.0223,0.802821 q -1.65024,0 -2.00705,0.434862 -0.35681,0.434861 -0.35681,2.430764 0,2.430764 0.36796,2.843325 0.37911,0.412561 2.60917,0.412561 1.7729,0 1.7729,-1.772897 l 0,-1.315735 0,-1.237682 q 0,-1.215383 -0.39026,-1.50529 -0.39027,-0.289908 -1.99591,-0.289908 z"
           style="font-style:normal;font-variant:normal;font-weight:normal;font-stretch:normal;font-size:40px;line-height:125%;font-family:Eurostile;-inkscape-font-specification:'Eurostile, Normal';text-align:start;writing-mode:lr-tb;text-anchor:start;fill:#999999"
           id="path4722" />
      </g>
      <g
         style="fill:#999999"
         transform="matrix(0.62418243,0,0,0.62418243,182.00985,183.05399)"
         id="g4752">
        <path
           d="m 718.9667,68.757498 0,2.185457 -7.37034,13.034692 -2.04051,0 7.98362,-13.770611 -9.66731,0 0,-1.449538 11.09454,0 z"
           style="font-style:normal;font-variant:normal;font-weight:normal;font-stretch:normal;font-size:40px;line-height:125%;font-family:Eurostile;-inkscape-font-specification:'Eurostile, Normal';text-align:start;writing-mode:lr-tb;text-anchor:start;fill:#999999"
           id="path4724" />
        <path
           d="m 732.79307,68.757498 0,1.449538 -8.54113,0 -0.078,4.616223 0.0335,0 q 0.89203,-1.259984 4.00296,-1.259984 3.01058,0 4.10331,1.036975 1.10388,1.03698 1.10388,3.902605 0,3.501191 -1.04813,4.571619 -1.03698,1.059278 -4.43782,1.059278 -3.37854,0 -4.52702,-0.791671 -1.13732,-0.791672 -1.13732,-3.133232 l 0,-0.579813 1.61679,0 q 0,2.062804 0.63556,2.564564 0.64672,0.490616 3.27819,0.490616 2.75412,0 3.36739,-0.635566 0.61326,-0.635566 0.61326,-3.478892 0,-2.296962 -0.69132,-2.921379 -0.68016,-0.635566 -3.17783,-0.635566 -3.47889,0 -3.8134,1.460687 l -1.54989,0 0,-7.716002 10.24712,0 z"
           style="font-style:normal;font-variant:normal;font-weight:normal;font-stretch:normal;font-size:40px;line-height:125%;font-family:Eurostile;-inkscape-font-specification:'Eurostile, Normal';text-align:start;writing-mode:lr-tb;text-anchor:start;fill:#999999"
           id="path4726" />
        <path
           d="m 738.50202,68.701747 q 2.28581,0 2.79872,0.602115 0.51292,0.590966 0.51292,3.211285 0,2.620317 -0.51292,3.267039 -0.51291,0.646715 -2.60917,0.646715 -2.35271,0 -2.94367,-0.657871 -0.57982,-0.657865 -0.57982,-3.300484 0,-2.419614 0.59097,-3.088632 0.60211,-0.680167 2.74297,-0.680167 z m -0.0223,0.802821 q -1.65024,0 -2.00705,0.434861 -0.35681,0.434861 -0.35681,2.430764 0,2.430767 0.36796,2.843324 0.37911,0.412563 2.60916,0.412563 1.7729,0 1.7729,-1.772898 l 0,-1.315734 0,-1.237683 q 0,-1.215382 -0.39026,-1.50529 -0.37911,-0.289907 -1.9959,-0.289907 z m 10.97189,-0.74707 -10.33633,15.220149 -1.03697,0 10.26942,-15.220149 1.10388,0 z m -0.45716,7.548747 q 2.28581,0 2.79872,0.602117 0.51291,0.590968 0.51291,3.211285 0,2.631472 -0.51291,3.278187 -0.51291,0.635567 -2.60917,0.635567 -2.35271,0 -2.94368,-0.657866 -0.57981,-0.657871 -0.57981,-3.300487 0,-2.419613 0.59096,-3.088633 0.60212,-0.68017 2.74298,-0.68017 z m -0.0223,0.802821 q -1.65024,0 -2.00705,0.434862 -0.35681,0.434862 -0.35681,2.430768 0,2.430763 0.36796,2.84332 0.37911,0.412563 2.60917,0.412563 1.7729,0 1.7729,-1.772897 l 0,-1.315736 0,-1.237678 q 0,-1.215384 -0.39027,-1.50529 -0.39025,-0.289912 -1.9959,-0.289912 z"
           style="font-style:normal;font-variant:normal;font-weight:normal;font-stretch:normal;font-size:40px;line-height:125%;font-family:Eurostile;-inkscape-font-specification:'Eurostile, Normal';text-align:start;writing-mode:lr-tb;text-anchor:start;fill:#999999"
           id="path4728" />
      </g>
      <g
         style="fill:#999999"
         transform="matrix(0.62418243,0,0,0.62418243,182.00985,265.05399)"
         id="g4757">
        <path
           d="m 718.7883,97.302252 0,1.449537 -8.54113,0 -0.078,4.616221 0.0335,0 q 0.89203,-1.25998 4.00296,-1.25998 3.01058,0 4.10331,1.03697 1.10388,1.03698 1.10388,3.90261 0,3.50119 -1.04813,4.57162 -1.03698,1.05928 -4.43782,1.05928 -3.37854,0 -4.52702,-0.79168 -1.13732,-0.79167 -1.13732,-3.13323 l 0,-0.57981 1.61679,0 q 0,2.0628 0.63557,2.56456 0.64671,0.49062 3.27818,0.49062 2.75412,0 3.36739,-0.63557 0.61326,-0.63556 0.61326,-3.47889 0,-2.29696 -0.69131,-2.92138 -0.68017,-0.63556 -3.17784,-0.63556 -3.47889,0 -3.8134,1.46068 l -1.54989,0 0,-7.715998 10.24713,0 z"
           style="font-style:normal;font-variant:normal;font-weight:normal;font-stretch:normal;font-size:40px;line-height:125%;font-family:Eurostile;-inkscape-font-specification:'Eurostile, Normal';text-align:start;writing-mode:lr-tb;text-anchor:start;fill:#999999"
           id="path4730" />
        <path
           d="m 727.78658,97.146146 q 4.22597,0 5.09569,1.137332 0.86972,1.126176 0.86972,6.623272 0,5.24064 -0.82512,6.35567 -1.05928,1.41609 -5.14029,1.41609 -4.081,0 -5.14028,-1.41609 -0.82512,-1.11503 -0.82512,-6.90203 0,-5.006484 0.91432,-6.110367 0.91432,-1.103877 5.05108,-1.103877 z m 0,1.449537 q -3.20013,0 -3.7688,0.825126 -0.55751,0.825121 -0.55751,5.485941 0,4.67197 0.55751,5.4971 0.56867,0.82512 3.7688,0.82512 3.20014,0 3.75766,-0.82512 0.56866,-0.82513 0.56866,-5.4971 0,-4.66082 -0.56866,-5.485941 -0.55752,-0.825126 -3.75766,-0.825126 z"
           style="font-style:normal;font-variant:normal;font-weight:normal;font-stretch:normal;font-size:40px;line-height:125%;font-family:Eurostile;-inkscape-font-specification:'Eurostile, Normal';text-align:start;writing-mode:lr-tb;text-anchor:start;fill:#999999"
           id="path4732" />
        <path
           d="m 738.50202,97.246498 q 2.28581,0 2.79872,0.602118 0.51292,0.590967 0.51292,3.211284 0,2.62032 -0.51292,3.26704 -0.51291,0.64671 -2.60917,0.64671 -2.35271,0 -2.94367,-0.65787 -0.57982,-0.65786 -0.57982,-3.30048 0,-2.419617 0.59097,-3.088632 0.60211,-0.68017 2.74297,-0.68017 z m -0.0223,0.802822 q -1.65024,0 -2.00705,0.434862 -0.35681,0.434862 -0.35681,2.430758 0,2.43077 0.36796,2.84333 0.37911,0.41256 2.60916,0.41256 1.7729,0 1.7729,-1.77289 l 0,-1.31574 0,-1.237684 q 0,-1.215378 -0.39026,-1.50529 -0.37911,-0.289906 -1.9959,-0.289906 z m 10.97189,-0.747068 -10.33633,15.220148 -1.03697,0 10.26942,-15.220148 1.10388,0 z m -0.45716,7.548748 q 2.28581,0 2.79872,0.60211 0.51291,0.59097 0.51291,3.21129 0,2.63147 -0.51291,3.27819 -0.51291,0.63556 -2.60917,0.63556 -2.35271,0 -2.94368,-0.65786 -0.57981,-0.65787 -0.57981,-3.30049 0,-2.41961 0.59096,-3.08863 0.60212,-0.68017 2.74298,-0.68017 z m -0.0223,0.80282 q -1.65024,0 -2.00705,0.43486 -0.35681,0.43486 -0.35681,2.43077 0,2.43076 0.36796,2.84332 0.37911,0.41256 2.60917,0.41256 1.7729,0 1.7729,-1.7729 l 0,-1.31573 0,-1.23768 q 0,-1.21538 -0.39027,-1.50529 -0.39025,-0.28991 -1.9959,-0.28991 z"
           style="font-style:normal;font-variant:normal;font-weight:normal;font-stretch:normal;font-size:40px;line-height:125%;font-family:Eurostile;-inkscape-font-specification:'Eurostile, Normal';text-align:start;writing-mode:lr-tb;text-anchor:start;fill:#999999"
           id="path4734" />
      </g>
      <g
         style="fill:#999999"
         transform="matrix(0.62418243,0,0,0.62418243,182.00985,347.05399)"
         id="g4762">
        <path
           d="m 718.97785,139.61762 0,1.44953 -10.96074,0 0,-2.86562 q 0,-2.40847 0.93663,-3.15553 0.93662,-0.74707 4.44896,-1.14848 2.80988,-0.31221 3.38969,-0.84742 0.59097,-0.53522 0.59097,-2.77643 0,-1.96245 -0.65787,-2.54227 -0.64672,-0.59096 -2.84332,-0.59096 -2.74297,0 -3.46774,0.47946 -0.71362,0.46831 -0.71362,2.27466 l 0.0223,1.13733 -1.68369,0 0.0111,-0.79167 q 0,-2.73182 1.14848,-3.635 1.15963,-0.91432 4.62737,-0.91432 3.07748,0 4.13676,0.98123 1.05928,0.98122 1.05928,3.82455 0,2.73182 -0.99238,3.65729 -0.98122,0.91433 -4.28171,1.23769 -2.89907,0.2899 -3.45659,0.80282 -0.55752,0.51291 -0.55752,2.91022 l 0,0.51292 9.2436,0 z"
           style="font-style:normal;font-variant:normal;font-weight:normal;font-stretch:normal;font-size:40px;line-height:125%;font-family:Eurostile;-inkscape-font-specification:'Eurostile, Normal';text-align:start;writing-mode:lr-tb;text-anchor:start;fill:#999999"
           id="path4736" />
        <path
           d="m 732.79307,125.84701 0,1.44953 -8.54113,0 -0.078,4.61623 0.0335,0 q 0.89203,-1.25999 4.00296,-1.25999 3.01058,0 4.10331,1.03698 1.10388,1.03698 1.10388,3.9026 0,3.50119 -1.04813,4.57162 -1.03698,1.05928 -4.43782,1.05928 -3.37854,0 -4.52702,-0.79167 -1.13732,-0.79167 -1.13732,-3.13324 l 0,-0.57981 1.61679,0 q 0,2.06281 0.63556,2.56457 0.64672,0.49061 3.27819,0.49061 2.75412,0 3.36739,-0.63556 0.61326,-0.63557 0.61326,-3.4789 0,-2.29696 -0.69132,-2.92137 -0.68016,-0.63557 -3.17783,-0.63557 -3.47889,0 -3.8134,1.46069 l -1.54989,0 0,-7.716 10.24712,0 z"
           style="font-style:normal;font-variant:normal;font-weight:normal;font-stretch:normal;font-size:40px;line-height:125%;font-family:Eurostile;-inkscape-font-specification:'Eurostile, Normal';text-align:start;writing-mode:lr-tb;text-anchor:start;fill:#999999"
           id="path4738" />
        <path
           d="m 738.50202,125.79125 q 2.28581,0 2.79872,0.60212 0.51292,0.59097 0.51292,3.21128 0,2.62032 -0.51292,3.26704 -0.51291,0.64672 -2.60917,0.64672 -2.35271,0 -2.94367,-0.65787 -0.57982,-0.65787 -0.57982,-3.30049 0,-2.41961 0.59097,-3.08863 0.60211,-0.68017 2.74297,-0.68017 z m -0.0223,0.80282 q -1.65024,0 -2.00705,0.43486 -0.35681,0.43487 -0.35681,2.43077 0,2.43077 0.36796,2.84332 0.37911,0.41257 2.60916,0.41257 1.7729,0 1.7729,-1.7729 l 0,-1.31574 0,-1.23768 q 0,-1.21538 -0.39026,-1.50529 -0.37911,-0.28991 -1.9959,-0.28991 z m 10.97189,-0.74706 -10.33633,15.22014 -1.03697,0 10.26942,-15.22014 1.10388,0 z m -0.45716,7.54874 q 2.28581,0 2.79872,0.60212 0.51291,0.59097 0.51291,3.21128 0,2.63147 -0.51291,3.27819 -0.51291,0.63557 -2.60917,0.63557 -2.35271,0 -2.94368,-0.65787 -0.57981,-0.65787 -0.57981,-3.30049 0,-2.41961 0.59096,-3.08863 0.60212,-0.68017 2.74298,-0.68017 z m -0.0223,0.80282 q -1.65024,0 -2.00705,0.43486 -0.35681,0.43487 -0.35681,2.43077 0,2.43077 0.36796,2.84332 0.37911,0.41257 2.60917,0.41257 1.7729,0 1.7729,-1.7729 l 0,-1.31574 0,-1.23768 q 0,-1.21538 -0.39027,-1.50529 -0.39025,-0.28991 -1.9959,-0.28991 z"
           style="font-style:normal;font-variant:normal;font-weight:normal;font-stretch:normal;font-size:40px;line-height:125%;font-family:Eurostile;-inkscape-font-specification:'Eurostile, Normal';text-align:start;writing-mode:lr-tb;text-anchor:start;fill:#999999"
           id="path4740" />
      </g>
    </g>
  </g>
</svg>
